<svg width="30" height="30" viewBox="0 0 30 30" fill="none" xmlns="http://www.w3.org/2000/svg">
<path d="M7.555 7.47531C14.2131 5.80375 22.4908 5.90624 24.4039 8.08471C26.317 10.2632 26.2775 17.5475 24.0413 19.5463C21.8063 21.545 12.1 21.735 9.025 19.5463C5.77625 17.2325 7.66125 10.115 7.555 5.80375C7.61875 3.39125 5 3 5 3" stroke="black" stroke-width="1.5" stroke-linecap="round" stroke-linejoin="round"/>
<path d="M18.1323 12.837H21.5986" stroke="black" stroke-width="1.5" stroke-linecap="round" stroke-linejoin="round"/>
<path fill-rule="evenodd" clip-rule="evenodd" d="M9.51719 24.5966C9.89219 24.5966 10.1972 24.9016 10.1972 25.2766C10.1972 25.6529 9.89219 25.9579 9.51719 25.9579C9.14094 25.9579 8.83594 25.6529 8.83594 25.2766C8.83594 24.9016 9.14094 24.5966 9.51719 24.5966Z" fill="black" stroke="black" stroke-width="1.5" stroke-linecap="round" stroke-linejoin="round"/>
<path fill-rule="evenodd" clip-rule="evenodd" d="M22.4317 24.5966C22.808 24.5966 23.113 24.9016 23.113 25.2766C23.113 25.6529 22.808 25.9579 22.4317 25.9579C22.0567 25.9579 21.7517 25.6529 21.7517 25.2766C21.7517 24.9016 22.0567 24.5966 22.4317 24.5966Z" fill="black" stroke="black" stroke-width="1.5" stroke-linecap="round" stroke-linejoin="round"/>
</svg>
