<svg width="36" height="36" viewBox="0 0 36 36" fill="none" xmlns="http://www.w3.org/2000/svg">
<path fill-rule="evenodd" clip-rule="evenodd" d="M1.875 13.7055C1.875 17.7045 3.54 20.7555 5.7255 23.214C7.8705 25.629 10.6065 27.564 12.7455 29.25C13.515 29.856 14.34 30.501 15.1755 30.99C16.011 31.4775 16.965 31.875 18 31.875C19.035 31.875 19.989 31.4775 20.8245 30.99C21.6615 30.501 22.485 29.856 23.2545 29.25C25.3935 27.5625 28.1295 25.6305 30.2745 23.214C32.46 20.754 34.125 17.7045 34.125 13.7055C34.125 9.63748 31.8225 6.10948 28.5 4.58998C25.3515 3.15061 21.468 3.58596 17.9996 6.68856C14.5336 3.58585 10.6481 3.1508 7.5 4.58998C4.179 6.10948 1.875 9.63748 1.875 13.7055Z" fill="#FF6961"/>
<path d="M29 15L27 15.1257C27.5 11.5 26 10.6257 24 9.99999L24.4367 8.25C28.0939 9.00001 30 11.5 29 15Z" fill="#FFF5F5"/>
</svg>
