<svg width="36" height="36" viewBox="0 0 36 36" fill="none" xmlns="http://www.w3.org/2000/svg">
<path d="M18 8.24998L17.19 9.02998C17.2949 9.13886 17.4208 9.22546 17.5599 9.28462C17.6991 9.34377 17.8488 9.37426 18 9.37426C18.1512 9.37426 18.3009 9.34377 18.4401 9.28462C18.5792 9.22546 18.7051 9.13886 18.81 9.02998L18 8.24998ZM14.139 27.483C11.865 25.6905 9.3795 23.94 7.407 21.72C5.475 19.542 4.125 17.0025 4.125 13.7055H1.875C1.875 17.7045 3.54 20.7555 5.7255 23.214C7.8705 25.629 10.6065 27.564 12.7455 29.25L14.139 27.483ZM4.125 13.7055C4.125 10.4805 5.9475 7.77448 8.436 6.63598C10.854 5.53048 14.103 5.82298 17.19 9.02998L18.81 7.47148C15.15 3.66598 10.896 3.03748 7.5 4.58998C4.179 6.10948 1.875 9.63748 1.875 13.7055H4.125ZM12.7455 29.25C13.515 29.856 14.34 30.501 15.1755 30.99C16.011 31.4775 16.965 31.875 18 31.875V29.625C17.535 29.625 16.989 29.445 16.311 29.0475C15.6315 28.6515 14.928 28.1055 14.139 27.483L12.7455 29.25ZM23.2545 29.25C25.3935 27.5625 28.1295 25.6305 30.2745 23.214C32.46 20.754 34.125 17.7045 34.125 13.7055H31.875C31.875 17.0025 30.525 19.542 28.593 21.72C26.6205 23.94 24.135 25.6905 21.861 27.483L23.2545 29.25ZM34.125 13.7055C34.125 9.63748 31.8225 6.10948 28.5 4.58998C25.104 3.03748 20.853 3.66598 17.19 7.46998L18.81 9.02998C21.897 5.82448 25.146 5.53048 27.564 6.63598C30.0525 7.77448 31.875 10.479 31.875 13.7055H34.125ZM21.861 27.483C21.072 28.1055 20.3685 28.6515 19.689 29.0475C19.011 29.4435 18.465 29.625 18 29.625V31.875C19.035 31.875 19.989 31.4775 20.8245 30.99C21.6615 30.501 22.485 29.856 23.2545 29.25L21.861 27.483Z" fill="#B9B9B9"/>
<path d="M29 15L27 15.1257C27.5 11.5 26 10.6257 24 9.99997L24.4367 8.24998C28.0939 8.99999 30 11.5 29 15Z" fill="#B9B9B9"/>
</svg>
